<svg width="24" height="24" viewBox="0 0 24 24" fill="none" xmlns="http://www.w3.org/2000/svg">
<path fill-rule="evenodd" clip-rule="evenodd" d="M10.0269 6.46934C9.88629 6.32889 9.69567 6.25 9.49692 6.25C9.29817 6.25 9.10754 6.32889 8.96692 6.46934L3.96692 11.4693C3.82646 11.61 3.74758 11.8006 3.74758 11.9993C3.74758 12.1981 3.82646 12.3887 3.96692 12.5293L8.96692 17.5293C9.03558 17.603 9.11838 17.6621 9.21038 17.7031C9.30238 17.7441 9.40169 17.7662 9.50239 17.7679C9.6031 17.7697 9.70313 17.7512 9.79651 17.7135C9.8899 17.6757 9.97474 17.6196 10.046 17.5484C10.1172 17.4772 10.1733 17.3923 10.211 17.2989C10.2488 17.2055 10.2673 17.1055 10.2655 17.0048C10.2637 16.9041 10.2417 16.8048 10.2007 16.7128C10.1597 16.6208 10.1006 16.538 10.0269 16.4693L5.55692 11.9993L10.0269 7.52934C10.1674 7.38871 10.2463 7.19809 10.2463 6.99934C10.2463 6.80059 10.1674 6.60997 10.0269 6.46934Z" fill="white"/>
<path opacity="0.5" d="M14.5 11.25C15.453 11.25 16.867 11.53 18.063 12.391C19.298 13.281 20.25 14.756 20.25 17C20.25 17.1989 20.171 17.3897 20.0303 17.5303C19.8897 17.671 19.6989 17.75 19.5 17.75C19.3011 17.75 19.1103 17.671 18.9697 17.5303C18.829 17.3897 18.75 17.1989 18.75 17C18.75 15.244 18.035 14.22 17.187 13.609C16.3 12.97 15.213 12.75 14.5 12.75L6.31 12.75L5.56 12L6.31 11.25L14.5 11.25Z" fill="white"/>
</svg>
