<svg width="20" height="20" viewBox="0 0 20 20" fill="none" xmlns="http://www.w3.org/2000/svg">
<path fill-rule="evenodd" clip-rule="evenodd" d="M9.12 1.04102H10.88C12.4117 1.04102 13.625 1.04102 14.5742 1.16852C15.5508 1.30018 16.3417 1.57685 16.9658 2.20018C17.5892 2.82435 17.8658 3.61518 17.9975 4.59185C18.125 5.54185 18.125 6.75435 18.125 8.28602V11.7127C18.125 13.2443 18.125 14.4577 17.9975 15.4068C17.8658 16.3835 17.5892 17.1743 16.9658 17.7985C16.3417 18.4218 15.5508 18.6985 14.5742 18.8302C13.6242 18.9577 12.4117 18.9577 10.88 18.9577H9.12C7.58833 18.9577 6.375 18.9577 5.42583 18.8302C4.44917 18.6985 3.65833 18.4218 3.03417 17.7985C2.41083 17.1743 2.13417 16.3835 2.0025 15.4068C1.875 14.4568 1.875 13.2443 1.875 11.7127V8.28602C1.875 6.75435 1.875 5.54102 2.0025 4.59185C2.13417 3.61518 2.41083 2.82435 3.03417 2.20018C3.65833 1.57685 4.44917 1.30018 5.42583 1.16852C6.37583 1.04102 7.58833 1.04102 9.12 1.04102ZM5.59167 2.40768C4.75333 2.52018 4.27 2.73185 3.91667 3.08435C3.565 3.43685 3.35333 3.92018 3.24083 4.75852C3.12583 5.61518 3.12417 6.74352 3.12417 8.33268V11.666C3.12417 13.2552 3.12583 14.3843 3.24083 15.241C3.35333 16.0785 3.565 16.5618 3.9175 16.9143C4.27 17.2668 4.75333 17.4785 5.59167 17.591C6.44833 17.706 7.57667 17.7077 9.16583 17.7077H10.8325C12.4217 17.7077 13.5508 17.706 14.4075 17.591C15.245 17.4785 15.7283 17.2668 16.0808 16.9143C16.4333 16.5618 16.645 16.0785 16.7575 15.2402C16.8725 14.3843 16.8742 13.2552 16.8742 11.666V8.33268C16.8742 6.74352 16.8725 5.61518 16.7575 4.75768C16.645 3.92018 16.4333 3.43685 16.0808 3.08435C15.7283 2.73185 15.245 2.52018 14.4067 2.40768C13.5508 2.29268 12.4217 2.29102 10.8325 2.29102H9.16583C7.57667 2.29102 6.44917 2.29268 5.59167 2.40768ZM6.04167 8.33268C6.04167 8.16692 6.10751 8.00795 6.22472 7.89074C6.34194 7.77353 6.50091 7.70768 6.66667 7.70768H13.3333C13.4991 7.70768 13.6581 7.77353 13.7753 7.89074C13.8925 8.00795 13.9583 8.16692 13.9583 8.33268C13.9583 8.49844 13.8925 8.65741 13.7753 8.77462C13.6581 8.89183 13.4991 8.95768 13.3333 8.95768H6.66667C6.50091 8.95768 6.34194 8.89183 6.22472 8.77462C6.10751 8.65741 6.04167 8.49844 6.04167 8.33268ZM6.04167 11.666C6.04167 11.5003 6.10751 11.3413 6.22472 11.2241C6.34194 11.1069 6.50091 11.041 6.66667 11.041H10.8333C10.9991 11.041 11.1581 11.1069 11.2753 11.2241C11.3925 11.3413 11.4583 11.5003 11.4583 11.666C11.4583 11.8318 11.3925 11.9907 11.2753 12.108C11.1581 12.2252 10.9991 12.291 10.8333 12.291H6.66667C6.50091 12.291 6.34194 12.2252 6.22472 12.108C6.10751 11.9907 6.04167 11.8318 6.04167 11.666Z" fill="#FDFDFD"/>
</svg>
