<svg width="20" height="20" viewBox="0 0 20 20" fill="none" xmlns="http://www.w3.org/2000/svg">
<path d="M5.07435 12.4993C4.7499 11.766 4.58242 10.9729 4.58268 10.171C4.58268 7.08352 7.00768 4.58268 9.99935 4.58268C12.991 4.58268 15.416 7.08435 15.416 10.171C15.4163 10.9729 15.2488 11.766 14.9243 12.4993M9.99935 1.66602V2.49935M18.3327 9.99935H17.4993M2.49935 9.99935H1.66602M15.891 4.10685L15.3018 4.69602M4.69685 4.69685L4.10768 4.10768M12.0968 16.0885C12.9385 15.816 13.2768 15.0452 13.3718 14.2702C13.4002 14.0385 13.2093 13.846 12.976 13.846H7.06352C7.00654 13.8451 6.95001 13.8563 6.89768 13.8789C6.84536 13.9014 6.79842 13.9349 6.75997 13.9769C6.72153 14.019 6.69246 14.0688 6.67468 14.1229C6.6569 14.177 6.65082 14.2343 6.65685 14.291C6.75018 15.0643 6.98518 15.6293 7.87685 16.0877M12.0968 16.0885L7.87685 16.0877M12.0968 16.0885C11.996 17.7093 11.5277 18.351 10.0052 18.3327C8.37685 18.3627 8.00185 17.5685 7.87685 16.0877" stroke="#FDFDFD" stroke-width="1.25" stroke-linecap="round" stroke-linejoin="round"/>
</svg>
