<svg width="12" height="9" viewBox="0 0 12 9" fill="none" xmlns="http://www.w3.org/2000/svg">
<path d="M10.5925 6.59375H1.07827C1.01812 6.59375 0.968899 6.64297 0.968899 6.70312V7.52344C0.968899 7.58359 1.01812 7.63281 1.07827 7.63281H9.35249L7.37964 10.1348C7.32359 10.2059 7.37417 10.3125 7.46577 10.3125H8.45699C8.52398 10.3125 8.58687 10.2824 8.62925 10.2291L10.9371 7.30195C11.1626 7.01484 10.9589 6.59375 10.5925 6.59375ZM10.922 3.36719H2.64781L4.62066 0.865234C4.67671 0.794141 4.62613 0.6875 4.53452 0.6875H3.54331C3.47632 0.6875 3.41343 0.717578 3.37105 0.770899L1.06324 3.69805C0.837649 3.98516 1.04136 4.40625 1.4064 4.40625H10.922C10.9822 4.40625 11.0314 4.35703 11.0314 4.29688V3.47656C11.0314 3.41641 10.9822 3.36719 10.922 3.36719Z" fill="#818181"/>
</svg>
