<svg width="12" height="7" viewBox="0 0 12 7" fill="none" xmlns="http://www.w3.org/2000/svg">
<path d="M1.33334 7C1.16806 7 1.02961 6.944 0.918002 6.832C0.806391 6.72 0.750391 6.58156 0.750002 6.41667C0.749613 6.25178 0.805613 6.11333 0.918002 6.00133C1.03039 5.88933 1.16884 5.83333 1.33334 5.83333H3.66667C3.83195 5.83333 3.97059 5.88933 4.08259 6.00133C4.19459 6.11333 4.25039 6.25178 4.25 6.41667C4.24961 6.58156 4.19361 6.72019 4.082 6.83258C3.97039 6.94497 3.83195 7.00078 3.66667 7H1.33334ZM1.33334 4.08333C1.16806 4.08333 1.02961 4.02733 0.918002 3.91533C0.806391 3.80333 0.750391 3.66489 0.750002 3.5C0.749613 3.33511 0.805613 3.19667 0.918002 3.08467C1.03039 2.97267 1.16884 2.91667 1.33334 2.91667H7.16667C7.33195 2.91667 7.47059 2.97267 7.58259 3.08467C7.69459 3.19667 7.75039 3.33511 7.75 3.5C7.74961 3.66489 7.69361 3.80353 7.582 3.91592C7.47039 4.02831 7.33195 4.08411 7.16667 4.08333H1.33334ZM1.33334 1.16667C1.16806 1.16667 1.02961 1.11067 0.918002 0.998667C0.806391 0.886667 0.750391 0.748222 0.750002 0.583333C0.749613 0.418444 0.805613 0.28 0.918002 0.168C1.03039 0.0560001 1.16884 0 1.33334 0H10.6667C10.8319 0 10.9706 0.0560001 11.0826 0.168C11.1946 0.28 11.2504 0.418444 11.25 0.583333C11.2496 0.748222 11.1936 0.886861 11.082 0.99925C10.9704 1.11164 10.8319 1.16744 10.6667 1.16667H1.33334Z" fill="#818181"/>
</svg>
