<svg width="12" height="12" viewBox="0 0 12 12" fill="none" xmlns="http://www.w3.org/2000/svg">
<path d="M5.04027 3.9485C5.57877 2.983 5.84777 2.5 6.25027 2.5C6.65277 2.5 6.92177 2.983 7.46027 3.9485L7.59927 4.1985C7.75227 4.473 7.82927 4.61 7.94827 4.7005C8.06727 4.791 8.21577 4.8245 8.51327 4.892L8.78327 4.953C9.82877 5.1895 10.3518 5.308 10.4758 5.708C10.6003 6.108 10.2438 6.5245 9.53078 7.358L9.34678 7.573C9.14428 7.81 9.04327 7.9285 8.99727 8.075C8.95227 8.2215 8.96728 8.3795 8.99778 8.695L9.02577 8.983C9.13377 10.095 9.18727 10.651 8.86177 10.898C8.53627 11.145 8.04677 10.92 7.06827 10.4695L6.81477 10.3525C6.53677 10.2245 6.39777 10.1605 6.25027 10.1605C6.10277 10.1605 5.96377 10.2245 5.68527 10.3525L5.43227 10.4695C4.45377 10.9195 3.96427 11.1455 3.63877 10.898C3.31327 10.651 3.36727 10.095 3.47477 8.983L3.50277 8.6955C3.53327 8.3795 3.54877 8.2215 3.50277 8.0755C3.45777 7.9285 3.35627 7.8105 3.15377 7.5735L2.96927 7.3575C2.25677 6.5245 1.90027 6.1075 2.02427 5.7075C2.14927 5.3075 2.67177 5.1895 3.71727 4.953L3.98727 4.892C4.28477 4.8245 4.43327 4.791 4.55227 4.7005C4.67177 4.6105 4.74827 4.473 4.90127 4.1985L5.04027 3.9485Z" stroke="#0ABAB5" stroke-width="0.75"/>
<path d="M2.495 1C2.495 1 2.639 1.729 2.955 2.0425C3.27 2.356 4 2.495 4 2.495C4 2.495 3.271 2.639 2.9575 2.955C2.644 3.27 2.505 4 2.505 4C2.505 4 2.361 3.271 2.045 2.9575C1.73 2.644 1 2.505 1 2.505C1 2.505 1.729 2.361 2.0425 2.045C2.356 1.73 2.495 1 2.495 1Z" stroke="#0ABAB5" stroke-width="0.5" stroke-linejoin="round"/>
<path d="M9 2.5H10M9.5 3V2" stroke="#0ABAB5" stroke-width="0.75" stroke-linecap="round"/>
</svg>
